HIERARCHY
ROOT Hips
{
	OFFSET 0.000000 100.481300 0.000000
	CHANNELS 6 Xposition Yposition Zposition Xrotation Yrotation Zrotation 
	JOINT Spine
	{
		OFFSET -0.279200 12.230698 -2.892100
		CHANNELS 3 Xrotation Yrotation Zrotation
		JOINT Spine1
		{
			OFFSET -0.232667 10.192268 -1.242267
			CHANNELS 3 Xrotation Yrotation Zrotation
			JOINT Spine1_split
			{
				OFFSET -0.232667 10.192268 -1.242267
				CHANNELS 3 Xrotation Yrotation Zrotation
				JOINT Spine2
				{
					OFFSET -0.232667 10.192268 -1.242267
					CHANNELS 3 Xrotation Yrotation Zrotation
					JOINT Neck
					{
						OFFSET -0.418800 17.814194 8.416900
						CHANNELS 3 Xrotation Yrotation Zrotation
						JOINT Head
						{
							OFFSET 0.000000 7.031097 3.806800
							CHANNELS 3 Xrotation Yrotation Zrotation
							JOINT HeadTop_End
							{
								OFFSET 0.000000 24.646606 12.978600
								CHANNELS 3 Xrotation Yrotation Zrotation
								End Site
								{
									OFFSET 0.000000 0.000000 0.000000
								}
							}
						}
					}
					JOINT LeftShoulder
					{
						OFFSET 8.476499 7.247704 -3.868750
						CHANNELS 3 Xrotation Yrotation Zrotation
						JOINT LeftShoulder_split
						{
							OFFSET 8.476499 7.247704 -3.868750
							CHANNELS 3 Xrotation Yrotation Zrotation
							JOINT LeftArm
							{
								OFFSET 9.308998 -2.777710 0.208600
								CHANNELS 3 Xrotation Yrotation Zrotation
								JOINT LeftForeArm
								{
									OFFSET 29.972298 0.000000 0.000000
									CHANNELS 3 Xrotation Yrotation Zrotation
									JOINT LeftHand
									{
										OFFSET 26.026505 0.000000 0.000000
										CHANNELS 3 Xrotation Yrotation Zrotation
										JOINT LeftHandThumb1
										{
											OFFSET 12.240501 -7.147949 9.207150
											CHANNELS 3 Xrotation Yrotation Zrotation
											JOINT LeftHandThumb2
											{
												OFFSET 4.138618 -2.389435 2.389433
												CHANNELS 3 Xrotation Yrotation Zrotation
												JOINT LeftHandThumb3
												{
													OFFSET 2.726913 -1.574387 1.574386
													CHANNELS 3 Xrotation Yrotation Zrotation
													JOINT LeftHandThumb4
													{
														OFFSET 3.941010 -2.275345 2.275342
														CHANNELS 3 Xrotation Yrotation Zrotation
														End Site
														{
															OFFSET 0.000000 0.000000 0.000000
														}
													}
												}
											}
										}
										JOINT LeftHandIndex1
										{
											OFFSET 24.424698 -1.985611 5.953459
											CHANNELS 3 Xrotation Yrotation Zrotation
											JOINT LeftHandIndex2
											{
												OFFSET 6.426697 0.000000 0.000000
												CHANNELS 3 Xrotation Yrotation Zrotation
												JOINT LeftHandIndex3
												{
													OFFSET 5.337898 0.000000 0.000000
													CHANNELS 3 Xrotation Yrotation Zrotation
													JOINT LeftHandIndex4
													{
														OFFSET 4.409401 0.000000 0.000000
														CHANNELS 3 Xrotation Yrotation Zrotation
														End Site
														{
															OFFSET 0.000000 0.000000 0.000000
														}
													}
												}
											}
										}
										JOINT LeftHandMiddle1
										{
											OFFSET 23.810104 0.000000 0.000000
											CHANNELS 3 Xrotation Yrotation Zrotation
											JOINT LeftHandMiddle2
											{
												OFFSET 7.176498 0.000000 0.000000
												CHANNELS 3 Xrotation Yrotation Zrotation
												JOINT LeftHandMiddle3
												{
													OFFSET 6.774902 0.000000 0.000000
													CHANNELS 3 Xrotation Yrotation Zrotation
													JOINT LeftHandMiddle4
													{
														OFFSET 5.403328 0.000000 0.000000
														CHANNELS 3 Xrotation Yrotation Zrotation
														End Site
														{
															OFFSET 0.000000 0.000000 0.000000
														}
													}
												}
											}
										}
										JOINT LeftHandRing1
										{
											OFFSET 22.908401 -0.839279 -6.020567
											CHANNELS 3 Xrotation Yrotation Zrotation
											JOINT LeftHandRing2
											{
												OFFSET 6.337502 0.000000 0.000000
												CHANNELS 3 Xrotation Yrotation Zrotation
												JOINT LeftHandRing3
												{
													OFFSET 5.779297 0.000000 0.000000
													CHANNELS 3 Xrotation Yrotation Zrotation
													JOINT LeftHandRing4
													{
														OFFSET 4.965698 0.000000 0.000000
														CHANNELS 3 Xrotation Yrotation Zrotation
														End Site
														{
															OFFSET 0.000000 0.000000 0.000000
														}
													}
												}
											}
										}
										JOINT LeftHandPinky1
										{
											OFFSET 20.037003 -1.530319 -10.950146
											CHANNELS 3 Xrotation Yrotation Zrotation
											JOINT LeftHandPinky2
											{
												OFFSET 5.254700 0.000000 0.000000
												CHANNELS 3 Xrotation Yrotation Zrotation
												JOINT LeftHandPinky3
												{
													OFFSET 4.810204 0.000000 0.000000
													CHANNELS 3 Xrotation Yrotation Zrotation
													JOINT LeftHandPinky4
													{
														OFFSET 3.647202 0.000000 0.000000
														CHANNELS 3 Xrotation Yrotation Zrotation
														End Site
														{
															OFFSET 0.000000 0.000000 0.000000
														}
													}
												}
											}
										}
									}
								}
							}
						}
					}
					JOINT RightShoulder
					{
						OFFSET -7.570500 7.247704 -3.868750
						CHANNELS 3 Xrotation Yrotation Zrotation
						JOINT RightShoulder_split
						{
							OFFSET -7.570500 7.247704 -3.868750
							CHANNELS 3 Xrotation Yrotation Zrotation
							JOINT RightArm
							{
								OFFSET -9.308998 -2.777710 0.208500
								CHANNELS 3 Xrotation Yrotation Zrotation
								JOINT RightForeArm
								{
									OFFSET -29.972300 0.000000 0.000000
									CHANNELS 3 Xrotation Yrotation Zrotation
									JOINT RightHand
									{
										OFFSET -26.026505 0.000000 0.000000
										CHANNELS 3 Xrotation Yrotation Zrotation
										JOINT RightHandThumb1
										{
											OFFSET -12.240601 -7.148026 9.207092
											CHANNELS 3 Xrotation Yrotation Zrotation
											JOINT RightHandThumb2
											{
												OFFSET -4.138618 -2.389435 2.389433
												CHANNELS 3 Xrotation Yrotation Zrotation
												JOINT RightHandThumb3
												{
													OFFSET -2.726974 -1.574417 1.574421
													CHANNELS 3 Xrotation Yrotation Zrotation
													JOINT RightHandThumb4
													{
														OFFSET -3.941010 -2.275345 2.275343
														CHANNELS 3 Xrotation Yrotation Zrotation
														End Site
														{
															OFFSET 0.000000 0.000000 0.000000
														}
													}
												}
											}
										}
										JOINT RightHandIndex1
										{
											OFFSET -24.424698 -1.985657 5.953444
											CHANNELS 3 Xrotation Yrotation Zrotation
											JOINT RightHandIndex2
											{
												OFFSET -6.426697 0.000000 0.000000
												CHANNELS 3 Xrotation Yrotation Zrotation
												JOINT RightHandIndex3
												{
													OFFSET -5.337898 0.000000 0.000000
													CHANNELS 3 Xrotation Yrotation Zrotation
													JOINT RightHandIndex4
													{
														OFFSET -4.409401 0.000000 0.000000
														CHANNELS 3 Xrotation Yrotation Zrotation
														End Site
														{
															OFFSET 0.000000 0.000000 0.000000
														}
													}
												}
											}
										}
										JOINT RightHandMiddle1
										{
											OFFSET -23.810097 0.000000 0.000000
											CHANNELS 3 Xrotation Yrotation Zrotation
											JOINT RightHandMiddle2
											{
												OFFSET -7.176498 0.000000 0.000000
												CHANNELS 3 Xrotation Yrotation Zrotation
												JOINT RightHandMiddle3
												{
													OFFSET -6.774902 0.000000 0.000000
													CHANNELS 3 Xrotation Yrotation Zrotation
													JOINT RightHandMiddle4
													{
														OFFSET -5.403328 0.000000 0.000000
														CHANNELS 3 Xrotation Yrotation Zrotation
														End Site
														{
															OFFSET 0.000000 0.000000 0.000000
														}
													}
												}
											}
										}
										JOINT RightHandRing1
										{
											OFFSET -22.908302 -0.839325 -6.020576
											CHANNELS 3 Xrotation Yrotation Zrotation
											JOINT RightHandRing2
											{
												OFFSET -6.337502 0.000000 0.000000
												CHANNELS 3 Xrotation Yrotation Zrotation
												JOINT RightHandRing3
												{
													OFFSET -5.779297 0.000000 0.000000
													CHANNELS 3 Xrotation Yrotation Zrotation
													JOINT RightHandRing4
													{
														OFFSET -4.965698 0.000000 0.000000
														CHANNELS 3 Xrotation Yrotation Zrotation
														End Site
														{
															OFFSET 0.000000 0.000000 0.000000
														}
													}
												}
											}
										}
										JOINT RightHandPinky1
										{
											OFFSET -20.037003 -1.530334 -10.950259
											CHANNELS 3 Xrotation Yrotation Zrotation
											JOINT RightHandPinky2
											{
												OFFSET -5.254700 0.000000 0.000000
												CHANNELS 3 Xrotation Yrotation Zrotation
												JOINT RightHandPinky3
												{
													OFFSET -4.810204 0.000000 0.000000
													CHANNELS 3 Xrotation Yrotation Zrotation
													JOINT RightHandPinky4
													{
														OFFSET -3.647202 0.000000 0.000000
														CHANNELS 3 Xrotation Yrotation Zrotation
														End Site
														{
															OFFSET 0.000000 0.000000 0.000000
														}
													}
												}
											}
										}
									}
								}
							}
						}
					}
				}
			}
		}
	}
	JOINT LeftUpLeg
	{
		OFFSET 15.427100 -6.655098 0.678600
		CHANNELS 3 Xrotation Yrotation Zrotation
		JOINT LeftLeg
		{
			OFFSET 4.081073 -39.591068 13.024000
			CHANNELS 3 Xrotation Yrotation Zrotation
			JOINT LeftFoot
			{
				OFFSET -4.081074 -37.707932 -15.979700
				CHANNELS 3 Xrotation Yrotation Zrotation
				JOINT LeftToeBase
				{
					OFFSET 5.346399 -15.068900 20.645000
					CHANNELS 3 Xrotation Yrotation Zrotation
					JOINT LeftToe_End
					{
						OFFSET 2.754700 0.931300 11.300900
						CHANNELS 3 Xrotation Yrotation Zrotation
						End Site
						{
							OFFSET 0.000000 0.000000 0.000000
						}
					}
				}
			}
		}
	}
	JOINT RightUpLeg
	{
		OFFSET -15.569500 -6.655098 0.678600
		CHANNELS 3 Xrotation Yrotation Zrotation
		JOINT RightLeg
		{
			OFFSET -4.081825 -39.591045 13.023800
			CHANNELS 3 Xrotation Yrotation Zrotation
			JOINT RightFoot
			{
				OFFSET 4.081824 -37.707954 -15.979600
				CHANNELS 3 Xrotation Yrotation Zrotation
				JOINT RightToeBase
				{
					OFFSET -5.346400 -15.068900 20.645000
					CHANNELS 3 Xrotation Yrotation Zrotation
					JOINT RightToe_End
					{
						OFFSET -2.754700 0.931300 11.300900
						CHANNELS 3 Xrotation Yrotation Zrotation
						End Site
						{
							OFFSET 0.000000 0.000000 0.000000
						}
					}
				}
			}
		}
	}
}
MOTION
Frames: 4
Frame Time: 0.016667
2.195712 64.479973 -1.340336 16.286712 -12.020510 -3.816974 11.326812 17.374577 -10.408695 2.878201 4.087945 -0.126406 0.000000 0.000000 0.000000 2.848453 4.312289 -0.311450 -0.690417 -2.335957 4.374010 -6.949602 -9.364419 11.092255 -0.000000 0.000000 0.000000 1.187665 -1.370113 -14.873637 0.000000 0.000000 0.000000 -9.759254 30.208417 -41.048860 -0.000005 -11.762807 -0.000000 17.749473 -17.726716 21.007625 -5.456662 -6.701461 3.223895 8.077438 27.563307 1.095391 -10.020030 -14.017843 7.739309 -0.000001 -0.000000 -0.000000 -1.812262 -6.056775 -12.583245 0.237184 1.651681 -16.342790 0.250131 1.695201 -16.786201 -0.000000 -0.000000 -0.000000 -1.249859 -0.637579 -18.645254 0.387937 2.098228 -20.947890 0.466475 2.292746 -22.997833 -0.000000 0.000001 0.000000 0.049640 3.688804 -26.109453 0.502166 2.375023 -23.874300 0.587679 2.559332 -25.860527 0.000003 -0.000000 -0.000001 0.229227 4.355132 -33.121209 0.780411 2.923321 -29.888665 0.780017 2.922629 -29.880872 -0.000003 -0.000001 0.000001 2.870349 11.957085 -6.152309 0.000000 0.000000 0.000000 -33.803665 70.877563 6.927830 0.000017 94.709555 -0.000017 17.111798 20.467039 -11.105449 -15.303058 26.927614 3.986250 9.854611 -45.625968 -5.441309 -7.056231 3.101007 -14.195940 -0.000001 -0.000002 -0.000002 0.782861 -4.716611 13.868241 0.169903 -1.247735 15.507864 0.169800 -1.247385 15.503218 0.000001 0.000000 -0.000000 1.576769 -6.016269 32.822279 0.816465 -2.636021 34.413632 0.910224 -2.767782 36.402842 0.000001 -0.000000 0.000000 2.347864 -6.542683 43.827415 1.218019 -3.142197 42.367865 1.329193 -3.259707 44.358462 0.000001 0.000002 -0.000001 3.008736 -7.082352 54.088767 1.765796 -3.652477 51.591448 1.765236 -3.652019 51.582668 -0.000001 -0.000002 0.000002 -88.102651 -2.405150 4.822265 44.711928 14.191759 -2.220725 20.276805 23.641511 12.819955 -4.472082 -0.000007 0.000005 -0.000000 0.000000 0.000000 25.949794 -10.035064 3.483538 34.627734 -2.249661 12.110996 -37.669470 -17.670003 13.219431 -44.289467 -0.000003 -0.000001 -0.000000 0.000000 0.000000 
1.152153 64.047821 -0.144085 17.856220 -11.705004 -3.625386 11.827824 16.793953 -10.813172 2.886043 3.978107 -0.232999 0.000000 0.000000 0.000000 2.857334 4.195419 -0.413706 -0.775481 -2.317380 4.285787 -7.176072 -9.471881 10.982036 0.000002 -0.000000 -0.000000 1.200903 -1.794892 -15.693775 0.000000 0.000000 0.000000 -10.576685 29.125122 -39.831618 0.000001 -14.202283 -0.000007 18.131917 -16.995304 22.228610 -5.549651 -6.736302 3.295553 8.061851 27.560102 1.140180 -10.020035 -14.017843 7.739310 -0.000001 -0.000003 0.000001 -1.804123 -6.064279 -12.527717 0.233818 1.640170 -16.225640 0.245529 1.679843 -16.629670 -0.000000 0.000002 0.000000 -1.242792 -0.654478 -18.510839 0.385033 2.090612 -20.868241 0.461231 2.280377 -22.866502 0.000000 0.000000 0.000001 0.044785 3.667158 -25.898568 0.498596 2.366925 -23.787838 0.584511 2.552801 -25.789584 -0.000000 -0.000000 0.000001 0.274476 4.440092 -32.904935 0.769655 2.904554 -29.677046 0.771071 2.907026 -29.704971 0.000002 0.000003 -0.000002 2.895101 12.404895 -5.753557 0.000000 0.000000 0.000000 -30.219988 69.244267 3.681471 -0.000103 96.122400 0.000113 20.583417 21.050438 -13.126466 -15.466402 26.941183 3.833671 9.820655 -45.228666 -5.419489 -7.056232 3.101006 -14.195942 0.000002 -0.000001 0.000002 0.750056 -4.663062 13.088637 0.153302 -1.186298 14.726122 0.153103 -1.185539 14.716614 -0.000002 0.000001 0.000002 1.442559 -5.897369 30.789571 0.743590 -2.526495 32.796103 0.834096 -2.661548 34.795166 0.000001 -0.000001 -0.000000 2.163464 -6.430867 41.453726 1.092405 -2.998883 40.023023 1.198304 -3.120468 42.007064 0.000001 0.000000 -0.000002 2.840314 -7.022720 51.977272 1.490548 -3.416684 47.129234 1.523309 -3.446744 47.676612 0.000001 0.000003 -0.000001 -90.486100 -2.624974 5.048708 46.943071 13.483459 -2.150593 19.434291 23.520810 11.863869 -4.472078 0.000003 -0.000001 -0.000001 -0.000000 0.000000 20.519166 -9.747876 0.808139 40.771967 -1.633682 12.588944 -36.359908 -18.964773 14.636435 -40.966286 0.000026 0.000010 0.000000 -0.000000 -0.000001 
0.076982 63.717613 1.105625 19.467690 -11.349224 -3.474441 12.320968 16.134831 -11.209773 2.894019 3.864282 -0.347308 0.000000 0.000000 0.000000 2.866434 4.074822 -0.524104 -0.868218 -2.297584 4.191819 -7.411891 -9.572893 10.876495 0.000002 -0.000000 -0.000000 1.202252 -2.183951 -16.571277 0.000000 0.000000 0.000000 -11.438023 28.007285 -38.630857 -0.000004 -16.749062 0.000002 18.480071 -16.138082 23.428256 -5.643238 -6.771488 3.367522 8.046178 27.556897 1.185238 -10.020034 -14.017842 7.739309 -0.000000 0.000001 -0.000000 -1.795915 -6.071794 -12.471872 0.230459 1.628579 -16.107804 0.241302 1.665640 -16.484877 -0.000001 0.000002 0.000001 -1.235641 -0.671461 -18.375639 0.382577 2.084169 -20.800773 0.456992 2.270295 -22.759661 -0.000001 -0.000000 -0.000001 0.039988 3.645363 -25.686424 0.495634 2.360203 -23.716032 0.583114 2.549904 -25.758108 0.000001 -0.000000 0.000001 0.319289 4.525942 -32.687352 0.758936 2.885669 -29.464726 0.763445 2.893635 -29.554225 -0.000004 -0.000000 0.000003 2.921961 12.894767 -5.335067 0.000000 0.000000 0.000000 -27.021021 67.470248 0.787283 -0.000288 97.583657 0.000310 24.180833 21.456146 -15.177635 -15.633644 26.955492 3.677454 9.785901 -44.821788 -5.396961 -7.056232 3.101007 -14.195935 -0.000001 0.000001 -0.000001 0.717152 -4.607636 12.288695 0.137025 -1.122566 13.918174 0.136617 -1.120923 13.897790 0.000002 0.000003 -0.000000 1.306882 -5.767755 28.660259 0.670839 -2.409941 31.106604 0.758240 -2.549053 33.126841 -0.000001 0.000000 0.000002 1.971116 -6.299214 38.969385 0.968388 -2.844890 37.590749 1.068250 -2.969914 39.559107 -0.000000 0.000002 -0.000001 2.670721 -6.955882 49.823713 1.221433 -3.145921 42.430136 1.287271 -3.216354 43.616417 0.000004 0.000001 -0.000001 -92.730186 -2.882964 5.293313 49.014148 12.702373 -2.111861 18.570183 23.443835 10.897084 -4.472092 -0.000009 -0.000007 -0.000000 -0.000001 -0.000000 15.283207 -9.408790 -1.929632 46.109378 -0.735337 12.946075 -33.892990 -20.089465 16.232202 -37.361879 -0.000007 0.000006 0.000000 0.000000 -0.000000 
-1.025894 63.473373 2.403873 21.115774 -10.959854 -3.362129 12.804240 15.411559 -11.593205 2.901928 3.747259 -0.467802 0.000000 0.000000 0.000000 2.875567 3.951233 -0.641012 -0.967464 -2.276755 4.092982 -7.655629 -9.668306 10.774950 -0.000002 -0.000000 -0.000000 1.192183 -2.545275 -17.494047 0.000000 0.000000 0.000000 -12.336935 26.855240 -37.455122 0.000000 -19.379948 -0.000013 18.788819 -15.181786 24.605533 -5.737371 -6.806998 3.439789 8.030427 27.553639 1.230519 -10.020031 -14.017842 7.739310 0.000000 -0.000000 0.000001 -1.787661 -6.079356 -12.415680 0.227106 1.616920 -15.989348 0.237420 1.652461 -16.350710 -0.000000 0.000001 0.000000 -1.228407 -0.688517 -18.239651 0.380524 2.078749 -20.744290 0.453645 2.262283 -22.674848 -0.000000 -0.000001 0.000001 0.035233 3.623439 -25.473074 0.493229 2.354722 -23.657465 0.583291 2.550260 -25.762046 -0.000000 -0.000000 -0.000002 0.363614 4.612628 -32.468500 0.748252 2.866699 -29.251740 0.756991 2.882229 -29.426077 -0.000003 -0.000001 -0.000002 2.947543 13.415550 -4.901027 0.000000 0.000000 0.000000 -24.203557 65.584050 -1.746851 -0.000151 99.080719 0.000132 27.863639 21.684527 -17.233057 -15.804332 26.970503 3.518035 9.750441 -44.406506 -5.373779 -7.056231 3.101007 -14.195940 0.000001 0.000003 -0.000007 0.684511 -4.550887 11.475700 0.121334 -1.057234 13.093351 0.120684 -1.054444 13.058271 0.000001 -0.000000 -0.000001 1.172686 -5.629158 26.469218 0.599701 -2.287990 29.371087 0.684062 -2.431694 31.419615 -0.000001 -0.000000 0.000001 1.777375 -6.150717 36.414563 0.848403 -2.682009 35.102347 0.941696 -2.809903 37.049398 0.000001 -0.000000 0.000000 2.501523 -6.882148 47.643373 0.967625 -2.843880 37.575087 1.063000 -2.963559 39.457665 -0.000001 -0.000001 0.000001 -94.845646 -3.177988 5.556515 50.941665 11.856010 -2.101563 17.682861 23.407294 9.920051 -4.472081 0.000001 0.000003 -0.000000 0.000002 -0.000000 10.170620 -9.060184 -4.719884 50.688934 0.397737 13.180368 -30.500900 -20.935747 17.846103 -35.107855 -0.072517 2.709393 0.000001 -0.000001 -0.000000 
